<mxfile host="app.diagrams.net" modified="2022-07-27T02:30:47.726Z" agent="5.0 (X11; Linux x86_64) AppleWebKit/537.36 (KHTML, like Gecko) Chrome/102.0.0.0 Safari/537.36" etag="GsI1xhlcheaEPggQaC_x" version="20.0.4" type="github">
  <diagram name="Page-1" id="c7558073-3199-34d8-9f00-42111426c3f3">
    <mxGraphModel dx="931" dy="533" grid="1" gridSize="10" guides="1" tooltips="1" connect="1" arrows="1" fold="1" page="1" pageScale="1" pageWidth="826" pageHeight="1169" background="none" math="0" shadow="0">
      <root>
        <mxCell id="0" />
        <mxCell id="1" parent="0" />
        <mxCell id="j0hrH9DG1A58uHijn_zF-103" value="" style="whiteSpace=wrap;html=1;aspect=fixed;fillColor=none;" vertex="1" parent="1">
          <mxGeometry x="600" y="295" width="140" height="140" as="geometry" />
        </mxCell>
        <mxCell id="j0hrH9DG1A58uHijn_zF-105" value="" style="rounded=0;whiteSpace=wrap;html=1;fillColor=none;" vertex="1" parent="1">
          <mxGeometry x="81" y="305" width="117" height="120" as="geometry" />
        </mxCell>
        <mxCell id="j0hrH9DG1A58uHijn_zF-96" value="" style="rounded=0;whiteSpace=wrap;html=1;fillColor=none;" vertex="1" parent="1">
          <mxGeometry x="280" y="200" width="240" height="330" as="geometry" />
        </mxCell>
        <mxCell id="j0hrH9DG1A58uHijn_zF-109" style="edgeStyle=orthogonalEdgeStyle;rounded=0;orthogonalLoop=1;jettySize=auto;html=1;exitX=1;exitY=0.5;exitDx=0;exitDy=0;entryX=0.4;entryY=0.1;entryDx=0;entryDy=0;entryPerimeter=0;strokeWidth=2;fillColor=#dae8fc;strokeColor=#6c8ebf;" edge="1" parent="1" source="10" target="j0hrH9DG1A58uHijn_zF-104">
          <mxGeometry relative="1" as="geometry" />
        </mxCell>
        <mxCell id="10" value="&lt;p style=&quot;margin: 0px; margin-top: 4px; text-align: center; text-decoration: underline;&quot;&gt;&lt;strong&gt;&lt;strong&gt;Promise (PDP)&lt;/strong&gt;&lt;br&gt;&lt;/strong&gt;&lt;/p&gt;&lt;hr&gt;&lt;p style=&quot;margin: 0px; margin-left: 8px;&quot;&gt;getEDD()&lt;/p&gt;" style="verticalAlign=middle;align=center;overflow=fill;fontSize=12;fontFamily=Helvetica;html=1;rounded=1;fontStyle=1;strokeWidth=3;fillColor=#E6FFCC" parent="1" vertex="1">
          <mxGeometry x="305" y="230" width="190" height="50" as="geometry" />
        </mxCell>
        <mxCell id="j0hrH9DG1A58uHijn_zF-108" style="edgeStyle=orthogonalEdgeStyle;rounded=0;orthogonalLoop=1;jettySize=auto;html=1;exitX=1;exitY=0.25;exitDx=0;exitDy=0;entryX=0;entryY=0.5;entryDx=0;entryDy=0;strokeWidth=2;fillColor=#dae8fc;strokeColor=#6c8ebf;" edge="1" parent="1" source="14" target="10">
          <mxGeometry relative="1" as="geometry" />
        </mxCell>
        <mxCell id="j0hrH9DG1A58uHijn_zF-110" style="edgeStyle=orthogonalEdgeStyle;rounded=0;orthogonalLoop=1;jettySize=auto;html=1;exitX=1;exitY=0.5;exitDx=0;exitDy=0;entryX=0;entryY=0.5;entryDx=0;entryDy=0;fillColor=#f8cecc;strokeColor=#b85450;strokeWidth=2;" edge="1" parent="1" source="14" target="j0hrH9DG1A58uHijn_zF-97">
          <mxGeometry relative="1" as="geometry" />
        </mxCell>
        <mxCell id="j0hrH9DG1A58uHijn_zF-111" style="edgeStyle=orthogonalEdgeStyle;rounded=0;orthogonalLoop=1;jettySize=auto;html=1;exitX=1;exitY=0.75;exitDx=0;exitDy=0;entryX=0;entryY=0.5;entryDx=0;entryDy=0;fillColor=#ffe6cc;strokeColor=#d79b00;strokeWidth=2;" edge="1" parent="1" source="14" target="j0hrH9DG1A58uHijn_zF-98">
          <mxGeometry relative="1" as="geometry" />
        </mxCell>
        <mxCell id="14" value="Jmeter" style="whiteSpace=wrap;align=center;verticalAlign=middle;fontStyle=1;strokeWidth=3;fillColor=#FFFFCC" parent="1" vertex="1">
          <mxGeometry x="94.99999999999997" y="334.9999999999999" width="90" height="60" as="geometry" />
        </mxCell>
        <mxCell id="94" value="Sandbox EC2" style="text;spacingTop=-5;align=center" parent="1" vertex="1">
          <mxGeometry x="81" y="305" width="75" height="20" as="geometry" />
        </mxCell>
        <mxCell id="j0hrH9DG1A58uHijn_zF-112" style="edgeStyle=orthogonalEdgeStyle;rounded=0;orthogonalLoop=1;jettySize=auto;html=1;exitX=1;exitY=0.5;exitDx=0;exitDy=0;entryX=0.16;entryY=0.55;entryDx=0;entryDy=0;entryPerimeter=0;fillColor=#f8cecc;strokeColor=#b85450;strokeWidth=2;" edge="1" parent="1" source="j0hrH9DG1A58uHijn_zF-97" target="j0hrH9DG1A58uHijn_zF-104">
          <mxGeometry relative="1" as="geometry" />
        </mxCell>
        <mxCell id="j0hrH9DG1A58uHijn_zF-97" value="&lt;p style=&quot;margin: 0px; margin-top: 4px; text-align: center; text-decoration: underline;&quot;&gt;&lt;strong&gt;&lt;strong&gt;Sourcing(Checkout)&lt;/strong&gt;&lt;br&gt;&lt;/strong&gt;&lt;/p&gt;&lt;hr&gt;&lt;p style=&quot;margin: 0px; margin-left: 8px;&quot;&gt;getEDD()&lt;/p&gt;" style="verticalAlign=middle;align=center;overflow=fill;fontSize=12;fontFamily=Helvetica;html=1;rounded=1;fontStyle=1;strokeWidth=3;fillColor=#E6FFCC" vertex="1" parent="1">
          <mxGeometry x="305" y="340" width="190" height="50" as="geometry" />
        </mxCell>
        <mxCell id="j0hrH9DG1A58uHijn_zF-113" style="edgeStyle=orthogonalEdgeStyle;rounded=0;orthogonalLoop=1;jettySize=auto;html=1;exitX=1;exitY=0.5;exitDx=0;exitDy=0;entryX=0.55;entryY=0.95;entryDx=0;entryDy=0;entryPerimeter=0;fillColor=#ffe6cc;strokeColor=#d79b00;strokeWidth=2;" edge="1" parent="1" source="j0hrH9DG1A58uHijn_zF-98" target="j0hrH9DG1A58uHijn_zF-104">
          <mxGeometry relative="1" as="geometry" />
        </mxCell>
        <mxCell id="j0hrH9DG1A58uHijn_zF-98" value="&lt;p style=&quot;margin: 0px; margin-top: 4px; text-align: center; text-decoration: underline;&quot;&gt;&lt;strong&gt;&lt;strong&gt;Fulfillment&lt;/strong&gt;&lt;br&gt;&lt;/strong&gt;&lt;/p&gt;&lt;hr&gt;&lt;p style=&quot;margin: 0px; margin-left: 8px;&quot;&gt;megaCall()&lt;/p&gt;" style="verticalAlign=middle;align=center;overflow=fill;fontSize=12;fontFamily=Helvetica;html=1;rounded=1;fontStyle=1;strokeWidth=3;fillColor=#E6FFCC" vertex="1" parent="1">
          <mxGeometry x="305" y="450" width="190" height="50" as="geometry" />
        </mxCell>
        <mxCell id="j0hrH9DG1A58uHijn_zF-104" value="Shipium" style="ellipse;shape=cloud;whiteSpace=wrap;html=1;fillColor=#CCCCFF;" vertex="1" parent="1">
          <mxGeometry x="610" y="321" width="120" height="80" as="geometry" />
        </mxCell>
        <mxCell id="j0hrH9DG1A58uHijn_zF-106" value="Staging Promise" style="text;spacingTop=-5;align=center" vertex="1" parent="1">
          <mxGeometry x="280" y="200" width="90" height="20" as="geometry" />
        </mxCell>
        <mxCell id="j0hrH9DG1A58uHijn_zF-114" value="Thread 1" style="text;spacingTop=-5;align=center" vertex="1" parent="1">
          <mxGeometry x="216" y="236" width="64" height="20" as="geometry" />
        </mxCell>
        <mxCell id="j0hrH9DG1A58uHijn_zF-117" value="Thread 3" style="text;spacingTop=-5;align=center" vertex="1" parent="1">
          <mxGeometry x="216" y="480" width="64" height="20" as="geometry" />
        </mxCell>
        <mxCell id="j0hrH9DG1A58uHijn_zF-121" value="Thread 2" style="text;spacingTop=-5;align=center" vertex="1" parent="1">
          <mxGeometry x="216" y="349" width="64" height="20" as="geometry" />
        </mxCell>
      </root>
    </mxGraphModel>
  </diagram>
</mxfile>
